HIERARCHY
ROOT root
{
	OFFSET	0	13.1	24.9
	CHANNELS 6  Xposition Yposition Zposition Xrotation Yrotation Zrotation
	JOINT spine_1
	{
		OFFSET	0	9.99999	0
		CHANNELS 3  Xrotation Yrotation Zrotation
		JOINT spine_2
		{
			OFFSET	0	112	-10
			CHANNELS 3  Xrotation Yrotation Zrotation
			JOINT spine_3
			{
				OFFSET	0	206.5	19.3
				CHANNELS 3  Xrotation Yrotation Zrotation
				JOINT spine_4
				{
					OFFSET	0	110.4	14.6
					CHANNELS 3  Xrotation Yrotation Zrotation
					JOINT neck_1
					{
						OFFSET	0	71.8	-50.3
						CHANNELS 3  Xrotation Yrotation Zrotation
						JOINT neck_2
						{
							OFFSET	0	86.2	-25.8
							CHANNELS 3  Xrotation Yrotation Zrotation
							JOINT head_ee
							{
								OFFSET	0	179.8	-8.7
								CHANNELS 3  Xrotation Yrotation Zrotation
								End Site
								{
									OFFSET	1	0	0
								}
							}
						}
					}
					JOINT left_clavicle
					{
						OFFSET	-43.2	22.4	-70.8
						CHANNELS 3  Xrotation Yrotation Zrotation
						JOINT left_shoulder
						{
							OFFSET	-93.9	-5.79999	48.7
							CHANNELS 3  Xrotation Yrotation Zrotation
							JOINT left_elbow
							{
								OFFSET	-291.4	-30.8	15.2
								CHANNELS 3  Xrotation Yrotation Zrotation
								JOINT left_lowarm_twist
								{
									OFFSET	-110.7	-3.89999	13.6
									CHANNELS 3  Xrotation Yrotation Zrotation
									JOINT left_hand
									{
										OFFSET	-110.7	-3.89999	13.6
										CHANNELS 3  Xrotation Yrotation Zrotation
										JOINT left_ee
										{
											OFFSET	-80.8	-5.10001	12.1
											CHANNELS 3  Xrotation Yrotation Zrotation
											End Site
											{
												OFFSET	1	0	0
											}
										}
									}
								}
							}
						}
					}
					JOINT right_clavicle
					{
						OFFSET	43.2	22.4	-70.8
						CHANNELS 3  Xrotation Yrotation Zrotation
						JOINT right_shoulder
						{
							OFFSET	93.9	-5.79999	48.7
							CHANNELS 3  Xrotation Yrotation Zrotation
							JOINT right_elbow
							{
								OFFSET	291.4	-30.8	15.2
								CHANNELS 3  Xrotation Yrotation Zrotation
								JOINT right_lowarm_twist
								{
									OFFSET	110.7	-3.89999	13.6
									CHANNELS 3  Xrotation Yrotation Zrotation
									JOINT right_hand
									{
										OFFSET	110.7	-3.89999	13.6
										CHANNELS 3  Xrotation Yrotation Zrotation
										JOINT right_ee
										{
											OFFSET	80.8	-5.10001	12.1
											CHANNELS 3  Xrotation Yrotation Zrotation
											End Site
											{
												OFFSET	1	0	0
											}
										}
									}
								}
							}
						}
					}
				}
			}
		}
	}
	JOINT left_hip
	{
		OFFSET	-82.8	-127.5	0.300001
		CHANNELS 3  Xrotation Yrotation Zrotation
		JOINT left_knee
		{
			OFFSET	-28.2	-396.7	2.2
			CHANNELS 3  Xrotation Yrotation Zrotation
			JOINT left_ankle
			{
				OFFSET	-11.7	-411.3	35.4
				CHANNELS 3  Xrotation Yrotation Zrotation
				JOINT left_toes
				{
					OFFSET	0	-60	-88.6
					CHANNELS 3  Xrotation Yrotation Zrotation
					JOINT left_foot_ee
					{
						OFFSET	-22.5	-16.5	-42.2
						CHANNELS 3  Xrotation Yrotation Zrotation
						End Site
						{
							OFFSET	1	0	0
						}
					}
				}
			}
		}
	}
	JOINT right_hip
	{
		OFFSET	82.8	-127.5	0.300001
		CHANNELS 3  Xrotation Yrotation Zrotation
		JOINT right_knee
		{
			OFFSET	28.2	-396.7	2.2
			CHANNELS 3  Xrotation Yrotation Zrotation
			JOINT right_ankle
			{
				OFFSET	11.7	-411.3	35.4
				CHANNELS 3  Xrotation Yrotation Zrotation
				JOINT right_toes
				{
					OFFSET	0	-60	-88.6
					CHANNELS 3  Xrotation Yrotation Zrotation
					JOINT right_foot_ee
					{
						OFFSET	22.5	-16.5	-42.2
						CHANNELS 3  Xrotation Yrotation Zrotation
						End Site
						{
							OFFSET	1	0	0
						}
					}
				}
			}
		}
	}
}
MOTION
Frames: 14
Frame Time: 0.02
3177.02 653.055 -1669.29 2.03655614049 79.2112002207 4.0218004936 -1.13363 -0.0359013 -0.722216 -1.13334 0.0101267 -0.723037 -1.13326 0.175782 -0.701418 -1.13394 0.0628028 -0.720375 -6.01603 1.94825 2.38304 -6.00102 1.8441 2.76952 -0.0 0.0 -0.0 4.55421 15.077 9.09369 -20.695 -12.7674 63.2093 0.438562 -12.2573 0.0470908 17.6985 0.280485 -2.23445 -0.50168 29.0856 8.63743 -0.0 0.0 -0.0 11.4733 12.6175 -23.0653 1.62093 14.3538 -49.7893 3.14461 57.2891 -1.71797 35.8543 0.151372 4.50379 1.25738 10.0792 -4.20795 0.0 0.0 0.0 32.5827 1.91529 -6.22194 -6.24432 0.206272 0.935647 -13.3376 15.084 2.00858 -4.43792 0.0 0.0 -0.0 0.0 -0.0 -19.1254 20.0682 -13.457 0.251492 0.0104373 0.0371821 39.1031 0.738337 4.80384 -16.1374 0.0 0.0 0.0 0.0 0.0 
3152.33283418 657.999 -1670.25613656 3.31994442405 78.2086913003 3.11621816839 -1.04307 -0.0748781 -0.788297 -1.04272 -0.0245666 -0.791464 -1.04213 0.156482 -0.776231 -1.04297 0.0319306 -0.791201 -4.81262 2.86071 3.41818 -4.78156 2.67354 3.97526 -0.0 0.0 -0.0 5.1304 15.2906 10.0291 -20.2377 -12.711 63.1516 0.421661 -11.7984 0.0435688 18.3709 0.277441 -2.32028 -0.941829 28.3172 5.94408 -0.0 0.0 -0.0 11.4028 11.8945 -22.919 1.30697 13.119 -51.0303 2.82776 54.4674 -1.45559 33.6093 0.0592315 4.23202 1.28183 8.47216 -5.06392 0.0 0.0 0.0 31.9173 1.85994 -7.06352 -10.6291 0.289627 1.60317 -9.66004 12.0212 1.44193 -2.30217 0.0 0.0 -0.0 0.0 -0.0 -19.996 22.3077 -13.412 -1.06445 -0.0423637 -0.157858 35.6589 1.62333 4.49636 -18.1139 0.0 0.0 0.0 0.0 0.0 
3152.33342859 657.999 -1670.27120752 3.31026973258 78.1737716284 3.12610204089 -1.04307 -0.0748781 -0.788297 -1.04272 -0.0245666 -0.791464 -1.04213 0.156482 -0.776231 -1.04297 0.0319306 -0.791201 -4.81262 2.86071 3.41818 -4.78156 2.67354 3.97526 -0.0 0.0 -0.0 5.1304 15.2906 10.0291 -20.2377 -12.711 63.1516 0.421661 -11.7984 0.0435688 18.3709 0.277441 -2.32028 -0.941829 28.3172 5.94408 -0.0 0.0 -0.0 11.4028 11.8945 -22.919 1.30697 13.119 -51.0303 2.82776 54.4674 -1.45559 33.6093 0.0592315 4.23202 1.28183 8.47216 -5.06392 0.0 0.0 0.0 31.9173 1.85994 -7.06352 -10.6291 0.289627 1.60317 -9.66004 12.0212 1.44193 -2.30217 0.0 0.0 -0.0 0.0 -0.0 -19.996 22.3077 -13.412 -1.06445 -0.0423637 -0.157858 35.6589 1.62333 4.49636 -18.1139 0.0 0.0 0.0 0.0 0.0 
3126.91885724 659.415 -1680.54049845 5.12727045782 77.2504558574 1.35515157055 -1.00199 -0.0160933 -0.604599 -1.00179 0.0224109 -0.604398 -1.00189 0.159173 -0.583493 -1.00236 0.0650256 -0.601308 -4.93448 3.05957 3.19555 -4.90723 3.21641 3.78312 -0.0 0.0 -0.0 5.45267 15.2296 10.5559 -19.5203 -12.4258 61.4186 0.42177 -11.8014 0.0435911 19.468 0.270312 -2.46022 -0.886506 28.8645 6.46708 -0.0 0.0 -0.0 10.7206 11.7816 -21.3953 -0.466622 11.7769 -53.6623 2.83485 54.5351 -1.46136 32.0786 0.00255268 4.04477 1.67531 11.6332 -6.36268 0.0 0.0 0.0 31.5322 1.86517 -7.32945 -13.8655 0.318269 2.09887 -5.7314 14.8302 0.853826 -4.11389 0.0 0.0 -0.0 0.0 -0.0 -20.3277 24.0228 -13.638 -3.6327 -0.132431 -0.541685 33.8442 3.39596 4.33911 -17.1255 0.0 0.0 0.0 0.0 0.0 
3098.94031194 664.42 -1687.28104593 6.28683870109 76.066590007 -0.0335114763946 -0.871727 -0.0144125 -0.484754 -0.871596 0.0164626 -0.484689 -0.871654 0.12511 -0.468553 -0.871957 0.0495419 -0.482431 -6.71648 3.38261 1.74342 -6.70919 5.00785 2.41685 -0.0 0.0 -0.0 5.93324 15.0208 11.3505 -18.9221 -12.3323 60.4492 0.409653 -11.4715 0.0411471 20.9628 0.256288 -2.65063 -0.999351 28.9511 5.89325 -0.0 0.0 -0.0 10.8733 11.2624 -21.7436 -1.62126 9.61274 -56.2928 2.72521 53.4613 -1.37266 29.3339 -0.0864612 3.70554 1.56526 10.9115 -5.93233 0.0 0.0 0.0 29.5282 2.04316 -7.26526 -16.0208 0.321797 2.4295 -0.338629 14.2727 0.0498545 -4.79709 0.0 0.0 -0.0 0.0 -0.0 -19.6665 25.0285 -13.558 -7.54983 -0.23643 -1.13372 29.6044 5.61619 3.9281 -17.1448 0.0 0.0 0.0 0.0 0.0 
3071.33095368 666.856 -1691.63278745 5.74401851025 74.4134970437 0.641540694469 -0.7154 -0.0296193 -0.384165 -0.715317 -0.00511407 -0.385271 -0.715231 0.0806856 -0.376763 -0.715428 0.0201708 -0.384777 -7.86157 3.4417 2.27391 -7.85108 4.80628 2.99603 -0.0 0.0 -0.0 6.22647 15.7268 11.803 -18.1404 -12.4054 59.9068 0.446381 -12.469 0.0487648 21.0513 0.255301 -2.66191 -1.28181 28.6152 4.22774 -0.0 0.0 -0.0 10.7041 11.0282 -21.371 -3.43661 9.68475 -57.3561 2.63069 52.4898 -1.29719 27.5286 -0.136103 3.48029 1.58093 11.0823 -5.964 0.0 0.0 0.0 27.918 2.06468 -7.35424 -17.7279 0.315764 2.69134 3.6997 13.3171 -0.538396 -5.55768 0.0 0.0 -0.0 0.0 -0.0 -19.1534 25.9915 -13.3005 -9.81802 -0.278064 -1.47926 25.8357 7.97012 3.5398 -17.6092 0.0 0.0 0.0 0.0 0.0 
3045.28219495 670.475 -1697.91242633 5.32846372493 72.8164482191 1.26356683373 -0.585218 -0.125947 -0.258988 -0.585187 -0.109212 -0.266477 -0.584644 -0.047871 -0.283982 -0.584744 -0.0921198 -0.272858 -9.83317 2.08808 1.68754 -9.82794 2.7821 2.1604 -0.0 0.0 -0.0 6.73283 15.7644 12.6306 -17.5094 -12.3561 59.118 0.49312 -13.7274 0.0593575 21.1782 0.253857 -2.67805 -1.75501 27.4788 1.14869 -0.0 0.0 -0.0 10.7873 11.074 -21.5551 -4.55856 7.94538 -58.3541 2.23496 47.9041 -0.992927 25.8699 -0.175434 3.27205 1.9684 13.7258 -7.42008 0.0 0.0 0.0 26.1286 2.48092 -7.73566 -19.9899 0.29576 3.03781 10.5285 11.1679 -1.49628 -8.23478 0.0 0.0 -0.0 0.0 -0.0 -18.4685 25.6747 -13.4321 -11.7784 -0.303005 -1.77902 22.9378 11.1511 3.24645 -18.1036 0.0 0.0 0.0 0.0 0.0 
3020.12137288 673.85 -1707.44557729 6.4960948512 71.1304650903 0.29073848533 -0.543028 -0.314197 -0.249544 -0.543042 -0.297681 -0.269031 -0.541604 -0.231404 -0.327786 -0.541645 -0.280267 -0.287127 -10.6703 2.34358 1.38377 -10.67 3.50179 1.94959 -0.0 0.0 -0.0 7.09395 15.4044 13.2493 -16.4659 -11.7594 58.867 0.541078 -15.0047 0.0712575 21.792 0.246367 -2.75609 -2.04014 28.131 -0.0912499 -0.0 0.0 -0.0 10.5251 10.3967 -20.9827 -7.35739 8.15909 -58.7783 2.12209 46.4247 -0.910156 24.5856 -0.201734 3.11012 2.12937 14.2341 -8.28159 0.0 0.0 0.0 23.8627 2.97187 -7.88737 -21.3162 0.277675 3.24051 15.7814 8.77794 -2.19524 -9.33216 0.0 0.0 -0.0 0.0 -0.0 -16.2934 25.2935 -13.9327 -18.6489 -0.30927 -2.8325 18.8004 14.5173 2.77787 -19.0221 0.0 0.0 0.0 0.0 0.0 
2996.83455361 675.508 -1716.5555603 8.40028867645 68.4477220588 -1.12996184297 -0.532502 -0.283573 -0.360973 -0.532467 -0.260029 -0.378285 -0.530671 -0.170781 -0.426085 -0.530847 -0.235929 -0.393767 -11.8447 1.42329 1.16519 -11.8429 1.94381 1.51678 -0.0 0.0 -0.0 7.6837 14.9163 14.271 -15.4778 -11.2381 58.3696 0.528353 -14.6672 0.0679992 23.2067 0.225922 -2.93564 -2.78508 28.7548 -3.79268 -0.0 0.0 -0.0 10.3038 10.5032 -20.4936 -9.73304 7.54754 -59.2398 2.00964 44.8662 -0.829745 21.8115 -0.246116 2.75856 2.50662 15.7621 -10.138 0.0 0.0 0.0 21.0768 4.04738 -8.20232 -21.7073 0.271446 3.3002 18.4563 6.77156 -2.53763 -10.4908 0.0 0.0 -0.0 0.0 -0.0 -13.8074 24.8934 -14.225 -27.6224 -0.127765 -4.19618 15.1241 17.0642 2.3186 -19.2968 0.0 0.0 0.0 0.0 0.0 
2977.02867949 678.713 -1725.96848904 7.70907896177 65.429009507 -0.237401073764 -0.267668 -0.162866 -0.449902 -0.267565 -0.133908 -0.459354 -0.266404 -0.0321548 -0.477392 -0.266706 -0.107146 -0.466323 -12.5624 1.35541 0.824717 -12.563 2.05105 1.18264 -0.0 0.0 -0.0 8.17877 14.6103 15.136 -14.7359 -11.0619 57.8866 0.62287 -17.1478 0.0939109 23.6631 0.218382 -2.99345 -3.0535 28.5766 -5.3402 -0.0 0.0 -0.0 10.6388 12.778 -21.1913 -11.9829 6.78467 -60.364 1.88943 43.1013 -0.746254 20.5124 -0.261036 2.5933 2.42512 15.1501 -9.86909 0.0 0.0 0.0 19.0074 4.53305 -8.85746 -21.9953 0.266598 3.34414 21.6226 4.61557 -2.93229 -10.617 0.0 0.0 -0.0 0.0 -0.0 -11.9161 24.3214 -14.1383 -34.2206 0.140593 -5.17261 14.1798 18.5175 2.20968 -19.5504 0.0 0.0 0.0 0.0 0.0 
2947.77490712 683.362 -1730.41151074 9.43891420859 64.4185339845 -1.94086237234 -0.160086 -0.146771 -0.55817 -0.159919 -0.110956 -0.566378 -0.158706 0.0121581 -0.577016 -0.159163 -0.0791218 -0.571695 -14.4357 1.49135 2.33184 -14.422 1.44034 2.6874 -0.0 0.0 -0.0 8.41725 14.3873 15.5647 -13.5102 -11.1132 57.7954 0.634779 -17.4559 0.0974526 24.2297 0.20838 -3.06514 -3.31799 28.96 -6.55212 -0.0 0.0 -0.0 10.545 10.348 -21.0272 -13.7285 6.15318 -60.4935 1.74263 40.7988 -0.648102 19.696 -0.268493 2.48929 2.56051 16.2288 -10.2849 0.0 0.0 0.0 15.7595 5.4748 -9.16888 -22.4831 0.257885 3.41848 23.3535 3.23887 -3.14371 -10.5675 0.0 0.0 -0.0 0.0 -0.0 -8.34573 23.9814 -13.8811 -40.968 0.529493 -6.13324 12.9478 22.5047 2.1059 -20.5927 0.0 0.0 0.0 0.0 0.0 
2923.00680802 691.772 -1735.15758811 10.9178477052 63.2951684229 -3.00053757317 -0.123419 -0.123504 -0.855276 -0.123015 -0.0688322 -0.861401 -0.121755 0.115578 -0.856383 -0.122778 -0.0211176 -0.863889 -15.5801 1.39908 2.67904 -15.5609 1.11362 2.9996 -0.0 0.0 -0.0 8.71951 13.5063 16.174 -12.2508 -11.3736 58.0853 0.637131 -17.5166 0.0981596 24.8273 0.197062 -3.14063 -3.50158 28.687 -7.70835 -0.0 0.0 -0.0 10.6276 10.8236 -21.2042 -16.0957 6.32508 -60.5981 1.6051 38.486 -0.560339 18.665 -0.275792 2.35782 2.59566 15.8395 -10.7068 0.0 0.0 0.0 13.4346 5.91205 -9.47672 -22.9297 0.249353 3.48647 23.0466 2.63533 -3.10948 -10.6957 0.0 0.0 -0.0 0.0 -0.0 -5.65964 23.7252 -13.8855 -45.7903 0.875613 -6.78907 11.9708 25.2325 2.01359 -21.3159 0.0 0.0 0.0 0.0 0.0 
2901.47996543 692.839 -1734.3548946 11.1097307362 63.3726150097 -2.99091570885 0.0365776 -0.173657 -1.06449 0.0372019 -0.105573 -1.07338 0.0395113 0.121652 -1.07167 0.0379117 -0.0491152 -1.07744 -16.1291 1.34445 2.37566 -16.1144 1.21157 2.7025 -0.0 0.0 -0.0 8.93138 12.3121 16.6655 -11.3079 -12.0547 58.0299 0.69468 -18.9896 0.116186 25.2746 0.188076 -3.19706 -3.35865 28.3731 -7.11491 -0.0 0.0 -0.0 10.4012 11.33 -20.6953 -18.002 6.79788 -61.166 1.53315 37.2134 -0.516189 18.2454 -0.278085 2.30427 2.69182 16.5608 -11.0195 0.0 0.0 0.0 11.2801 6.36998 -9.79413 -21.9284 0.267744 3.33393 24.0637 2.0044 -3.23248 -10.6673 0.0 0.0 -0.0 0.0 -0.0 -2.92019 23.9116 -13.894 -49.0041 1.13655 -7.20927 9.50559 27.62 1.66269 -22.1622 0.0 0.0 0.0 0.0 0.0 
2867.70822431 698.055 -1729.98481397 10.0924736845 63.1983949383 -1.908988989 0.387541 -0.236532 -1.35761 0.388554 -0.149673 -1.3699 0.392582 0.132206 -1.3717 0.389966 -0.0860657 -1.37536 -18.7862 1.96398 2.98937 -18.7666 2.19984 3.56026 -0.0 0.0 -0.0 9.24466 10.5582 17.4022 -8.29677 -14.899 57.9085 0.774243 -20.9836 0.143385 25.7827 0.177335 -3.26108 -3.44553 28.099 -7.75127 -0.0 0.0 -0.0 10.1546 11.8037 -20.1411 -21.59 6.75367 -61.4925 1.27666 32.3087 -0.369817 17.3866 -0.281555 2.19463 2.57078 14.9577 -10.9501 0.0 0.0 0.0 8.34702 6.78479 -9.29427 -19.1929 0.304369 2.91583 25.0001 0.666572 -3.34891 -10.9627 0.0 0.0 -0.0 0.0 -0.0 4.74115 24.8809 -13.9259 -56.1066 1.79456 -8.08273 8.38244 29.8459 1.51635 -23.738 0.0 0.0 0.0 0.0 0.0 
